<svg xmlns="http://www.w3.org/2000/svg" width="374" height="416" version="1"><path d="M291 328v-96l14-8 14 8 14-24 13-8v96l-13 8v-64l-14 24-14-8v64zm28-64v32l14 8m-14-104l14-8 13 8m-55 32l-14-8 14-8 14 8m0 0l14-24 14 8m-56 16v96l14 8m-42-152l-27 16-14 24v64l14 8 27-16 14-24v-64zm-13 24l13 8v32l-13 24-14-8v-32zm0 0v32l13 8m-41-56l28-16 13 8m-27 80l14-24 13 8m-55-32v64l14 8m0-64l-14-8 14-24 14 8m-56-64l-41 24v96l14-8v-32l13-8 14 8v16l14-8v-16l-14-8 14-24v-32zm-14 24l14 8-14 24-13 8v-32zm0 48v16l14 8m-55-80l41-24 14 8m-14 56l-13-8 13-24m-27 0l-14-8v96l14 8M83 96l-41 24v96l41-24 14-24v-64zm-14 24l14 8v32l-14 24-14 8v-64zm0 0v32l14 8m-55-48l41-24 14 8m-14 88l-14-8 14-24m-27-32l-14-8v96l14 8M180 8l180 104v192L180 408 14 312V104z" fill="none" stroke="#a45a22" stroke-width="2" stroke-linecap="round" stroke-linejoin="round"/></svg>